<svg width="200" height="200" viewBox="0 0 200 200" fill="none" xmlns="http://www.w3.org/2000/svg">
  <defs>
    <linearGradient id="bgGradient" x1="0%" y1="0%" x2="100%" y2="100%">
      <stop offset="0%" style="stop-color:#FF6B35;stop-opacity:1" />
      <stop offset="100%" style="stop-color:#4285F4;stop-opacity:1" />
    </linearGradient>
    <linearGradient id="carGradient" x1="0%" y1="0%" x2="100%" y2="100%">
      <stop offset="0%" style="stop-color:#FFFFFF;stop-opacity:1" />
      <stop offset="100%" style="stop-color:#F8F9FA;stop-opacity:1" />
    </linearGradient>
  </defs>
  
  <!-- Circular background -->
  <circle cx="100" cy="100" r="100" fill="url(#bgGradient)" />
  
  <!-- Car icon -->
  <g transform="translate(100, 100)">
    <path d="M-35 -10 Q-40 -20 -30 -20 L30 -20 Q40 -20 35 -10 L30 10 Q25 20 -25 20 Q-30 20 -35 10 Z" 
          fill="url(#carGradient)" 
          stroke="#E5E7EB" 
          stroke-width="2"/>
    
    <!-- Car windows -->
    <rect x="-25" y="-15" width="50" height="15" rx="3" fill="#E5E7EB" opacity="0.7"/>
    
    <!-- Car wheels -->
    <circle cx="-20" cy="15" r="8" fill="#374151"/>
    <circle cx="20" cy="15" r="8" fill="#374151"/>
    <circle cx="-20" cy="15" r="4" fill="#9CA3AF"/>
    <circle cx="20" cy="15" r="4" fill="#9CA3AF"/>
    
    <!-- Car headlights -->
    <circle cx="-30" cy="-5" r="3" fill="#FEF3C7"/>
    <circle cx="30" cy="-5" r="3" fill="#FEF3C7"/>
  </g>
</svg>
